<svg width="24" height="24" viewBox="0 0 24 24" fill="none" xmlns="http://www.w3.org/2000/svg">
<rect width="24" height="24" rx="8" fill="#FF3B30"/>
<path fill-rule="evenodd" clip-rule="evenodd" d="M14 13.5H14.6213L15.0607 13.9393L16.5706 15.4493C16.6031 15.4817 16.6471 15.5 16.6931 15.5C16.794 15.5 16.8736 15.4141 16.8658 15.3135L16.754 13.8597L16.6918 13.0512L17.3342 12.5564C18.0367 12.0152 18.5 11.2113 18.5 10C18.5 8.78641 18.0349 7.98143 17.3294 7.43993C16.5757 6.86151 15.4275 6.5 14 6.5C12.5725 6.5 11.4243 6.86151 10.6706 7.43993C9.96508 7.98143 9.5 8.78641 9.5 10C9.5 11.2136 9.96508 12.0186 10.6706 12.5601C11.4243 13.1385 12.5725 13.5 14 13.5ZM14.5199 15.5199L15.5099 16.5099C15.8237 16.8237 16.2493 17 16.6931 17C17.6678 17 18.4362 16.1702 18.3614 15.1984L18.2496 13.7447C19.3313 12.9113 20 11.6631 20 10C20 6.66667 17.3137 5 14 5C11.8732 5 10.0049 5.68655 8.93929 7.05966C6.13151 7.38398 4.00002 9.03076 4.00002 12C4.00002 13.6631 4.66872 14.9113 5.75043 15.7447L5.6386 17.1984C5.56384 18.1702 6.33224 19 7.30693 19C7.7507 19 8.1763 18.8237 8.4901 18.5099L10 17C11.8029 17 13.4201 16.5066 14.5199 15.5199ZM8.14306 8.73587C8.0494 9.1266 8 9.54797 8 10C8 12.9053 10.0407 14.5445 12.7588 14.9176C12.0421 15.2835 11.1047 15.5 10 15.5H9.37869L8.93935 15.9393L7.42944 17.4493C7.39695 17.4817 7.35288 17.5 7.30693 17.5C7.206 17.5 7.12644 17.4141 7.13418 17.3135L7.24601 15.8597L7.3082 15.0512L6.66586 14.5564C5.96331 14.0152 5.50002 13.2113 5.50002 12C5.50002 10.7864 5.9651 9.98143 6.67064 9.43993C7.06096 9.14037 7.5571 8.89898 8.14306 8.73587Z" fill="#F0F0F0"/>
</svg>
