<svg width="32" height="32" viewBox="0 0 32 32" fill="none" xmlns="http://www.w3.org/2000/svg">
<rect width="32" height="32" rx="16" fill="#3064FF"/>
<path fill-rule="evenodd" clip-rule="evenodd" d="M9.75 20.5C9.33579 20.5 9 20.1642 9 19.75C9 19.3358 9.33579 19 9.75 19H11.794C12.6535 19 13.4379 18.5104 13.8154 17.7382L14.6652 16L13.8154 14.2618C13.4379 13.4896 12.6535 13 11.794 13H9.75C9.33579 13 9 12.6642 9 12.25C9 11.8358 9.33579 11.5 9.75 11.5H11.794C13.2265 11.5 14.5338 12.3161 15.163 13.603L15.5 14.2924L15.8371 13.603C16.4662 12.3161 17.7735 11.5 19.206 11.5L20.4393 11.5L19.4697 10.5303C19.1768 10.2374 19.1768 9.76256 19.4697 9.46967C19.7626 9.17678 20.2374 9.17678 20.5303 9.46967L22.7803 11.7197C22.921 11.8603 23 12.0511 23 12.25C23 12.4489 22.921 12.6397 22.7803 12.7803L20.5303 15.0303C20.2374 15.3232 19.7626 15.3232 19.4697 15.0303C19.1768 14.7374 19.1768 14.2626 19.4697 13.9697L20.4393 13L19.206 13C18.3465 13 17.5621 13.4896 17.1846 14.2618L15.163 18.397C14.5338 19.6839 13.2265 20.5 11.794 20.5H9.75ZM16.3888 18.9578L17.0848 17.5341L17.1846 17.7382C17.5621 18.5104 18.3465 19 19.206 19H20.4393L19.4697 18.0303C19.1768 17.7374 19.1768 17.2626 19.4697 16.9697C19.7626 16.6768 20.2374 16.6768 20.5303 16.9697L22.7803 19.2197C23.0732 19.5126 23.0732 19.9874 22.7803 20.2803L20.5303 22.5303C20.2374 22.8232 19.7626 22.8232 19.4697 22.5303C19.1768 22.2374 19.1768 21.7626 19.4697 21.4697L20.4393 20.5H19.206C18.0654 20.5 17.0042 19.9826 16.3015 19.1222C16.3323 19.0686 16.3614 19.0138 16.3888 18.9578Z" fill="#F0F0F0"/>
</svg>
