<svg width="32" height="32" viewBox="0 0 32 32" fill="none" xmlns="http://www.w3.org/2000/svg">
<rect width="32" height="32" rx="16" fill="#FF3B30"/>
<path fill-rule="evenodd" clip-rule="evenodd" d="M16 22.75C15.5858 22.75 15.25 22.4142 15.25 22L15.25 11.8107L12.5303 14.5303C12.2374 14.8232 11.7626 14.8232 11.4697 14.5303C11.1768 14.2374 11.1768 13.7626 11.4697 13.4697L15.4697 9.46967C15.7626 9.17678 16.2374 9.17678 16.5303 9.46967L20.5303 13.4697C20.8232 13.7626 20.8232 14.2374 20.5303 14.5303C20.2374 14.8232 19.7626 14.8232 19.4697 14.5303L16.75 11.8107L16.75 22C16.75 22.4142 16.4142 22.75 16 22.75Z" fill="#F0F0F0"/>
</svg>
